# xmcd CD database file
#
# Track frame offsets:
#	150
#	19221
#	39108
#	58933
#	74813
#	94851
#	109966
#	127002
#	145982
#	168100
#	187087
#	204078
#	220099
#	237568
#	253880
#
# Disc length: 3626 seconds
#
# Revision: 1
# Processed by: cddbd v1.5.1PL0 Copyright (c) Steve Scherf et al.
# Submitted via: CDex 1.51
#
DISCID=e70e280f
DTITLE=Νίκος Βέρτης - Πολύ Απότομα Βραδιάζει
DYEAR=2003
DGENRE=
TTITLE0=Αστέρι μου
TTITLE1=Πολυ Απότομα Βραδιάζει
TTITLE2=Αν φύγεις
TTITLE3=Σαν τρελλός σε αγαπώ
TTITLE4=Δεν έχεις φύγει
TTITLE5=Τα ματάκια σου δάκρυσαν
TTITLE6=Σαν ποτηράκι μ'έσπασες
TTITLE7=Αν είσαι αγάπη
TTITLE8=Βράδιασε
TTITLE9=Μια του κλέφτη
TTITLE10=Ελα μάζι μου
TTITLE11=Δωσ'μου λίγο χρόνο
TTITLE12=Μια φωτιά
TTITLE13=Το τελευταίο σου φιλί
TTITLE14=Να με θυμάσαι
EXTD=YEAR: 2003
EXTT0=
EXTT1=
EXTT2=
EXTT3=
EXTT4=
EXTT5=
EXTT6=
EXTT7=
EXTT8=
EXTT9=
EXTT10=
EXTT11=
EXTT12=
EXTT13=
EXTT14=
PLAYORDER=
